HIERARCHY
ROOT Hips
{
	OFFSET -0.001795 -0.223333 0.028219
	CHANNELS 6 Xposition Yposition Zposition Zrotation Yrotation Xrotation 
	JOINT LeftUpLeg
	{
		OFFSET 0.069520 -0.091406 -0.006815
		CHANNELS 3 Zrotation Yrotation Xrotation
		JOINT LeftLeg
		{
			OFFSET 0.034277 -0.375199 -0.004496
			CHANNELS 3 Zrotation Yrotation Xrotation
			JOINT LeftFoot
			{
				OFFSET -0.013596 -0.397961 -0.043693
				CHANNELS 3 Zrotation Yrotation Xrotation
				JOINT LeftToe
				{
					OFFSET 0.026358 -0.055791 0.119288
					CHANNELS 3 Zrotation Yrotation Xrotation
					End Site
					{
						OFFSET 0.000000 0.000000 0.000000
					}
				}
			}
		}
	}
	JOINT RightUpLeg
	{
		OFFSET -0.067670 -0.090522 -0.004320
		CHANNELS 3 Zrotation Yrotation Xrotation
		JOINT RightLeg
		{
			OFFSET -0.038290 -0.382569 -0.008850
			CHANNELS 3 Zrotation Yrotation Xrotation
			JOINT RightFoot
			{
				OFFSET 0.015774 -0.398415 -0.042312
				CHANNELS 3 Zrotation Yrotation Xrotation
				JOINT RightToe
				{
					OFFSET -0.025372 -0.048144 0.123348
					CHANNELS 3 Zrotation Yrotation Xrotation
					End Site
					{
						OFFSET 0.000000 0.000000 0.000000
					}
				}
			}
		}
	}
	JOINT Spine
	{
		OFFSET -0.002533 0.108963 -0.026696
		CHANNELS 3 Zrotation Yrotation Xrotation
		JOINT Spine1
		{
			OFFSET 0.005487 0.135180 0.001092
			CHANNELS 3 Zrotation Yrotation Xrotation
			JOINT Spine2
			{
				OFFSET 0.001457 0.052922 0.025425
				CHANNELS 3 Zrotation Yrotation Xrotation
				JOINT Neck
				{
					OFFSET -0.002778 0.213870 -0.042857
					CHANNELS 3 Zrotation Yrotation Xrotation
					JOINT Head
					{
						OFFSET 0.005152 0.064970 0.051349
						CHANNELS 3 Zrotation Yrotation Xrotation
						End Site
						{
							OFFSET 0.000000 0.000000 0.000000
						}
					}
				}
				JOINT LeftShoulder
				{
					OFFSET 0.078845 0.121749 -0.034090
					CHANNELS 3 Zrotation Yrotation Xrotation
					JOINT LeftArm
					{
						OFFSET 0.090977 0.030469 -0.008868
						CHANNELS 3 Zrotation Yrotation Xrotation
						JOINT LeftForeArm
						{
							OFFSET 0.259612 -0.012772 -0.027456
							CHANNELS 3 Zrotation Yrotation Xrotation
							JOINT LeftHand
							{
								OFFSET 0.249234 0.008986 -0.001171
								CHANNELS 3 Zrotation Yrotation Xrotation
								End Site
								{
									OFFSET 0.000000 0.000000 0.000000
								}
							}
						}
					}
				}
				JOINT RightShoulder
				{
					OFFSET -0.081759 0.118833 -0.038615
					CHANNELS 3 Zrotation Yrotation Xrotation
					JOINT RightArm
					{
						OFFSET -0.096012 0.032551 -0.009143
						CHANNELS 3 Zrotation Yrotation Xrotation
						JOINT RightForeArm
						{
							OFFSET -0.253742 -0.013329 -0.021401
							CHANNELS 3 Zrotation Yrotation Xrotation
							JOINT RightHand
							{
								OFFSET -0.255298 0.007772 -0.005559
								CHANNELS 3 Zrotation Yrotation Xrotation
								End Site
								{
									OFFSET 0.000000 0.000000 0.000000
								}
							}
						}
					}
				}
			}
		}
	}
}
MOTION
Frames: 8
Frame Time: 0.050000
0.000000 0.973709 0.000000 -0.558425 24.411196 0.183559 7.599503 -0.673639 6.333727 -5.192641 0.110058 -5.551404 1.960017 10.531290 13.922413 0.000000 0.000000 0.000000 -2.435538 -0.091683 0.021317 0.348515 -0.061698 0.392001 0.703433 -0.501714 14.079944 0.000000 0.000000 0.000000 0.834392 -0.289343 5.260104 8.532239 -1.468740 -19.215164 -0.270525 -14.780286 26.135262 -8.614175 6.393506 -26.964560 0.000000 0.000000 0.000000 -15.964669 -25.208882 11.642541 -79.776151 -47.468549 26.597249 -34.982966 -84.979506 40.565097 0.000000 0.000000 0.000000 15.062999 21.974730 10.506198 61.626815 25.837147 5.524428 -24.793430 25.345921 -3.548107 0.000000 0.000000 0.000000 
-0.000785 0.973189 0.000564 -0.999927 24.685113 0.541364 7.661355 -0.685317 5.830676 -4.467156 0.089050 -6.175880 3.015118 11.896091 13.742997 0.000000 0.000000 0.000000 -3.120288 -0.082094 -0.363809 2.012407 -0.340702 -0.282125 1.163133 0.165628 15.254630 0.000000 0.000000 0.000000 2.205197 -0.378280 5.256807 6.953937 -0.900199 -20.137504 0.549534 -16.343648 28.322635 -9.279364 6.563789 -28.004243 0.000000 0.000000 0.000000 -18.600716 -25.907016 12.921009 -78.824865 -48.187556 26.664289 -42.883682 -84.586422 48.521806 0.000000 0.000000 0.000000 14.898818 20.865085 9.733722 64.325385 27.031859 6.371179 -28.773925 24.805542 -4.068492 0.000000 0.000000 0.000000 
-0.001457 0.972231 0.001045 -0.689240 22.917545 0.850870 7.013225 -0.520713 4.862139 -3.779546 0.159942 -4.599940 2.500053 11.448135 14.623284 0.000000 0.000000 0.000000 -3.356905 -0.041800 -0.781127 2.017291 -0.330085 -0.073335 2.344397 1.669770 16.941305 0.000000 0.000000 0.000000 2.531742 -0.378721 5.048844 8.783357 -1.626596 -18.625878 -0.873560 -13.488886 26.879201 -9.797683 7.204097 -25.664914 0.000000 0.000000 0.000000 -19.047929 -26.180987 12.739550 -79.661212 -47.606182 26.560436 -36.767362 -83.510138 41.201502 0.000000 0.000000 0.000000 15.739174 20.391035 9.918902 62.935673 27.002531 6.377935 -28.367064 26.356624 -4.293808 0.000000 0.000000 0.000000 
-0.001976 0.972464 0.001610 -0.774918 23.031201 0.516857 6.907805 -0.526114 5.856179 -3.611434 0.128617 -6.011527 3.883449 13.113659 14.190405 0.000000 0.000000 0.000000 -3.708201 -0.101248 -0.273322 2.736187 -0.449755 -0.347487 2.929566 2.544885 17.521138 0.000000 0.000000 0.000000 2.538729 -0.379868 5.074161 9.305277 -1.825744 -18.421845 -0.538898 -13.988674 27.570279 -10.876934 7.807981 -25.356530 0.000000 0.000000 0.000000 -19.750569 -27.406249 13.673339 -81.721000 -48.066865 28.179285 -24.551890 -83.223554 30.140276 0.000000 0.000000 0.000000 15.319505 21.611659 10.356711 62.644196 27.763506 6.706839 -30.379276 24.928164 -4.391123 0.000000 0.000000 0.000000 
-0.002455 0.972323 0.002086 -0.369795 22.814148 0.514827 6.394542 -0.451362 6.155982 -2.906416 0.129038 -6.307148 3.464163 12.707094 14.672928 0.000000 0.000000 0.000000 -3.790308 -0.092931 -0.423893 2.108708 -0.343778 0.118870 2.864190 2.338810 17.779757 0.000000 0.000000 0.000000 2.718868 -0.403996 5.264648 9.472197 -1.938685 -17.860169 -0.905612 -13.717506 26.932753 -11.394163 8.107921 -25.098908 0.000000 0.000000 0.000000 -18.944964 -27.157802 13.316255 -82.894230 -48.356680 29.186837 -24.101530 -83.211486 29.548159 0.000000 0.000000 0.000000 15.292007 21.598803 10.338851 62.221810 27.288586 6.433057 -30.753813 25.151871 -4.536189 0.000000 0.000000 0.000000 
-0.002989 0.972548 0.002507 -0.478654 22.111072 0.420921 6.383852 -0.441914 6.779215 -2.785754 0.125729 -6.973840 4.094678 13.523361 14.867461 0.000000 0.000000 0.000000 -3.828034 -0.067659 -0.688156 2.523170 -0.406080 0.607600 3.040741 2.405875 18.196304 0.000000 0.000000 0.000000 2.978591 -0.441871 5.521211 9.456682 -1.935315 -18.006875 -0.728637 -13.856835 27.300564 -12.056077 8.481976 -24.587699 0.000000 0.000000 0.000000 -19.399059 -27.488802 13.778730 -83.585081 -49.492516 30.745940 -11.138747 -82.465128 17.949106 0.000000 0.000000 0.000000 15.364496 22.209376 10.529264 61.570590 26.912854 6.029448 -30.540337 26.453558 -4.858246 0.000000 0.000000 0.000000 
-0.003732 0.972163 0.002723 -0.303697 21.747713 0.458382 6.222925 -0.407409 6.744768 -2.888652 0.128202 -7.062018 4.231966 13.746764 15.106733 0.000000 0.000000 0.000000 -3.780885 -0.059190 -0.727092 2.437966 -0.389080 0.666609 2.902822 2.133840 18.092404 0.000000 0.000000 0.000000 3.040008 -0.469442 5.804997 9.339020 -1.888430 -18.147552 -0.878424 -13.825920 27.376678 -12.202556 8.545447 -24.593787 0.000000 0.000000 0.000000 -19.366645 -27.687105 13.933271 -83.890660 -49.741237 31.212965 -5.879928 -82.574197 13.401353 0.000000 0.000000 0.000000 15.784658 22.377951 10.647805 60.897744 26.606316 5.713638 -30.845292 26.822339 -5.029534 0.000000 0.000000 0.000000 
-0.004544 0.972022 0.002832 -0.404155 20.887438 0.550536 6.394843 -0.405389 6.584714 -3.030100 0.137510 -7.140945 4.534679 14.019124 14.845853 0.000000 0.000000 0.000000 -3.653283 -0.009131 -1.180140 2.517121 -0.395062 1.079107 3.057257 2.347808 17.706131 0.000000 0.000000 0.000000 3.272454 -0.496138 5.917694 9.302441 -1.929851 -17.786586 -0.832917 -13.530911 27.142339 -12.339046 8.636411 -23.991131 0.000000 0.000000 0.000000 -19.963661 -27.655690 14.160689 -82.963126 -49.629073 30.599052 -2.989393 -82.632110 10.923579 0.000000 0.000000 0.000000 16.116243 22.492544 10.678633 60.121912 26.231363 5.387948 -31.132437 27.311479 -5.258353 0.000000 0.000000 0.000000 
